<svg width="86" height="23" viewBox="0 0 86 23" fill="none" xmlns="http://www.w3.org/2000/svg">
<path d="M81.8295 0L76.0503 9.92881L68.3943 0H63.8066L74.0544 13.297L69.5859 20.9706H73.7565L86.0001 0H81.8295Z" fill="#0A0A0A"/>
<path d="M38.2374 0L32.6388 9.92881L25.2509 0H20.8066L30.7341 13.297L26.3764 20.9706H30.4455L42.3065 0H38.2374Z" fill="#0A0A0A"/>
<path d="M61.2237 0H45.7179V11.8038C45.7179 14.1472 44.9865 17.2717 42.412 17.2717H40.9199V23H44.5184V20.7434H60.9019V23H64.5004V17.2717H61.1945V0H61.2237ZM57.6252 3.4717V17.2717H47.9707C49.2287 15.4491 49.3165 13.5107 49.3165 11.8038V3.4717H57.6252Z" fill="#0A0A0A"/>
<path d="M11.8009 7.99577H3.67472V3.48533H18.3437V0H0V20.9706H12.2789C14.4599 20.9706 16.0732 20.3262 17.3877 19.0961C18.7321 17.8367 19.4193 16.3137 19.4193 14.4978C19.4193 12.7112 18.762 11.1882 17.4176 9.92881C16.0732 8.64012 14.6391 7.99577 11.8009 7.99577ZM15.7147 14.4685C15.7147 15.2886 15.386 16.0208 14.7586 16.5773C14.1312 17.1631 13.474 17.456 12.2491 17.456H3.67472V11.4811H12.2789C13.4142 11.4811 14.191 11.774 14.8184 12.3598C15.4159 12.9748 15.7147 13.6485 15.7147 14.4685Z" fill="#0A0A0A"/>
</svg>
